HIERARCHY
ROOT Hips
{
  OFFSET -0.0456056 90.3504 -2.13493
  CHANNELS 6 Xposition Yposition Zposition Zrotation Xrotation Yrotation
  JOINT Spine
  {
    OFFSET -0.000355721 21.3001 -0.016921
    CHANNELS 3 Zrotation Xrotation Yrotation
    JOINT LeftArm
    {
      OFFSET 13.5181 21.3012 0
      CHANNELS 3 Zrotation Xrotation Yrotation
      JOINT LeftForeArm
      {
        OFFSET 24.5783 0 0
        CHANNELS 3 Zrotation Xrotation Yrotation
        JOINT LeftHand
        {
          OFFSET 24.5783 0 0
          CHANNELS 3 Zrotation Xrotation Yrotation
          End Site
          {
            OFFSET 7.32568 1.52588e-05 0.0169305
          }
        }
      }
    }
    JOINT Head
    {
      OFFSET 0 27.4458 -0.00489235
      CHANNELS 3 Zrotation Xrotation Yrotation
      End Site
      {
        OFFSET 0 0 0
      }
    }
    JOINT RightArm
    {
      OFFSET -13.5174 21.3012 0
      CHANNELS 3 Zrotation Xrotation Yrotation
      JOINT RightForeArm
      {
        OFFSET -24.5783 0 0
        CHANNELS 3 Zrotation Xrotation Yrotation
        JOINT RightHand
        {
          OFFSET -24.5783 0 0
          CHANNELS 3 Zrotation Xrotation Yrotation
          End Site
          {
            OFFSET -7.32568 1.52588e-05 0.0169305
          }
        }
      }
    }
  }
  JOINT RightUpLeg
  {
    OFFSET -8.44614 -9.41038 0.835684
    CHANNELS 3 Zrotation Xrotation Yrotation
    JOINT RightLeg
    {
      OFFSET 0 -40.9639 0
      CHANNELS 3 Zrotation Xrotation Yrotation
      JOINT RightFoot
      {
        OFFSET 0 -40.9639 0
        CHANNELS 3 Zrotation Xrotation Yrotation
        End Site
        {
          OFFSET 0.50614 -9.67405 14.6709
        }
      }
    }
  }
  JOINT LeftUpLeg
  {
    OFFSET 8.44614 -9.41038 0.835684
    CHANNELS 3 Zrotation Xrotation Yrotation
    JOINT LeftLeg
    {
      OFFSET 0 -40.9639 0
      CHANNELS 3 Zrotation Xrotation Yrotation
      JOINT LeftFoot
      {
        OFFSET 0 -40.9639 0
        CHANNELS 3 Zrotation Xrotation Yrotation
        End Site
        {
          OFFSET -0.50614 -9.67405 14.6709
        }
      }
    }
  }
}
MOTION
Frames:	21
Frame Time:	0.0333333
3.90645 89.2614 -4.5031 -5.0059 -7.15517 -27.6978 0.71406 3.69713 -2.78308 29.1768 69.0513 -108.222 6.65062e-05 5.32142e-06 -27.8391 17.0017 -42.3002 -1.58563 0.449554 3.66383 -52.9469 71.4986 23.4082 -8.17284 9.20681e-05 -2.1042e-06 33.6416 -1.06504 -10.1932 -13.6655 -2.79374 -13.024 -18.203 -13.4928 35.4779 16.5874 10.8916 -45.0801 10.1423 9.5688 -3.58818 31.7084 5.7383 38.4223 5.82511 -4.16366 -52.2799 9.43304 
3.3935 89.4275 -4.2486 -4.52696 -7.60666 -24.5123 0.694999 3.67098 -2.76125 26.914 69.1667 -105.699 6.64515e-05 5.34994e-06 -27.2519 16.5454 -42.9505 -1.69263 0.485938 3.23345 -52.3362 70.3529 23.5843 -7.34143 9.20303e-05 -2.12887e-06 32.6185 -0.754899 -9.53091 -13.4723 -3.43631 -11.7463 -19.637 -13.2077 35.1169 16.3191 9.93237 -45.802 8.21505 8.80684 -3.48666 29.341 5.98136 37.5449 5.74512 -4.98704 -51.741 8.29133 
2.91369 89.5783 -4.00702 -4.05708 -8.02596 -21.5788 0.629047 3.65662 -2.71499 24.3362 69.4289 -102.94 6.64088e-05 5.37172e-06 -26.7955 15.625 -43.2882 -2.04449 0.466638 2.7934 -51.5457 69.3101 23.9096 -6.56611 9.19964e-05 -2.15021e-06 31.7098 -0.138353 -9.17502 -13.6161 -3.92477 -10.5091 -21.2143 -13.1732 34.6514 16.129 9.2587 -46.3788 6.70637 8.13464 -3.31652 27.5269 6.4274 36.6737 5.58997 -6.17125 -51.1841 6.6784 
2.46409 89.7077 -3.77546 -3.57209 -8.36273 -18.9929 0.523984 3.64815 -2.62974 21.315 69.7858 -99.7826 6.63741e-05 5.38912e-06 -26.4255 14.2373 -43.2094 -2.67853 0.402363 2.31362 -50.55 68.3804 24.4154 -5.811 9.19695e-05 -2.16661e-06 30.9952 0.80397 -9.0114 -14.0057 -4.22107 -9.44963 -22.8031 -13.4882 34.1282 16.0734 8.86879 -46.8465 5.52794 7.60441 -3.12337 26.247 6.84029 35.8614 5.46938 -7.50931 -50.6387 4.79354 
2.04466 89.8103 -3.54924 -3.06678 -8.59099 -16.7681 0.382451 3.64168 -2.49835 17.6937 70.1939 -96.064 6.63416e-05 5.40514e-06 -26.0807 12.6305 -42.7421 -3.50574 0.30831 1.7643 -49.3494 67.5566 25.108 -5.05433 9.19507e-05 -2.17778e-06 30.4997 1.9766 -8.99666 -14.4263 -4.38179 -8.6279 -24.2599 -14.0385 33.6295 16.13 8.66605 -47.2548 4.56918 7.19976 -2.96876 25.2727 7.06516 35.1683 5.43725 -8.70555 -50.1474 3.03234 
1.65957 89.893 -3.33019 -2.54933 -8.73755 -14.8475 0.206081 3.63506 -2.32317 13.3631 70.6061 -91.6901 6.63041e-05 5.42333e-06 -25.6841 11.1083 -41.9815 -4.41754 0.198463 1.13274 -47.979 66.824 25.9562 -4.29371 9.19394e-05 -2.18441e-06 30.2023 3.20222 -9.14046 -14.6331 -4.65742 -7.98045 -25.4145 -14.2469 33.3456 16.1025 8.28418 -47.6611 3.6095 6.84811 -2.84521 24.4422 7.1371 34.5594 5.47463 -9.68423 -49.7045 1.53615 
1.31111 89.9679 -3.12183 -2.03053 -8.83796 -13.1459 0.00687375 3.6261 -2.11683 8.34607 70.9706 -86.7019 6.62543e-05 5.44703e-06 -25.1584 9.84978 -41.0053 -5.36822 0.0818084 0.433026 -46.4993 66.1791 26.8946 -3.54677 9.1934e-05 -2.18753e-06 30.0616 4.29374 -9.43914 -14.4868 -4.97459 -7.42616 -26.2368 -14.2257 33.1759 16.031 7.69183 -48.0536 2.47382 6.50649 -2.72267 23.6693 7.1082 33.9802 5.55975 -10.4778 -49.2859 0.270108 
0.994683 90.0408 -2.92182 -1.54515 -8.90554 -11.5878 -0.191013 3.61134 -1.89941 2.81933 71.2453 -81.2815 6.61871e-05 5.47807e-06 -24.4539 8.85968 -39.8467 -6.37257 -0.0386887 -0.298706 -44.9692 65.6402 27.847 -2.8422 9.19331e-05 -2.18807e-06 30.0373 5.12698 -9.83363 -14.026 -5.19751 -6.91792 -26.8294 -14.2044 32.9837 15.9346 7.05025 -48.3942 1.23365 6.22192 -2.5908 22.9153 6.97238 33.431 5.67996 -11.1315 -48.8919 -0.849402 
0.705567 90.1168 -2.72617 -1.14113 -8.95185 -10.1273 -0.35842 3.58652 -1.69224 -2.95665 71.4094 -75.6776 6.61025e-05 5.51576e-06 -23.5722 8.03161 -38.5371 -7.45158 -0.161739 -1.02119 -43.4136 65.239 28.7582 -2.20463 9.19353e-05 -2.18674e-06 30.0971 5.66729 -10.2319 -13.4246 -5.43501 -6.3772 -27.27 -13.8597 32.8295 15.2205 6.77733 -48.6315 0.659798 6.06009 -2.43947 22.2588 6.78222 32.9097 5.62632 -11.5806 -48.5442 -1.74689 
0.439463 90.1931 -2.53338 -0.806925 -9.00195 -8.75286 -0.473605 3.54879 -1.51121 -8.73751 71.4578 -70.1105 6.60055e-05 5.55709e-06 -22.568 7.241 -37.1563 -8.58733 -0.280189 -1.70614 -41.807 65.001 29.6135 -1.64301 9.19397e-05 -2.1842e-06 30.2121 5.94556 -10.5745 -12.8729 -5.71161 -5.7846 -27.4728 -13.1289 32.7488 13.8257 6.84166 -48.7939 0.711583 5.99842 -2.25351 21.8455 6.64459 32.3963 4.72155 -11.2732 -48.3462 -1.66346 
0.190843 90.2712 -2.33811 -0.480545 -9.06083 -7.46773 -0.531811 3.49867 -1.36135 -14.3416 71.3891 -64.7321 6.59039e-05 5.59823e-06 -21.5244 6.39711 -35.8275 -9.72286 -0.374826 -2.34804 -40.0891 64.9282 30.4347 -1.14596 9.1945e-05 -2.1811e-06 30.3511 6.02347 -10.8866 -12.4718 -5.98751 -5.17454 -27.4622 -12.2698 32.6735 12.2863 6.88681 -48.9357 0.763096 5.93019 -2.02499 21.6861 6.61146 31.8366 3.67452 -10.9795 -48.1309 -1.57819 
-0.0456056 90.3504 -2.13493 -0.109123 -9.11005 -6.28084 -0.541035 3.44013 -1.23727 -19.6256 71.2039 -59.6599 6.58046e-05 5.63636e-06 -20.5124 5.45072 -34.655 -10.7896 -0.416795 -2.96175 -38.2031 64.991 31.2517 -0.685158 9.195e-05 -2.17819e-06 30.4815 5.97359 -11.2656 -12.2045 -6.32212 -4.59257 -27.4619 -11.4427 32.5911 10.8862 6.91361 -49.0791 0.81131 5.79815 -1.75928 21.5984 6.54623 31.223 2.75252 -10.6993 -47.883 -1.49367 
-0.266969 90.4245 -1.92879 0.290791 -9.14982 -5.20864 -0.517806 3.37927 -1.1262 -24.4491 70.9121 -55.015 6.57109e-05 5.67054e-06 -19.5625 4.38758 -33.66 -11.7336 -0.377599 -3.56938 -36.1357 65.136 32.0724 -0.223727 9.19535e-05 -2.17612e-06 30.5739 5.87961 -11.8086 -11.9804 -6.69828 -4.05466 -27.6849 -10.8089 32.4818 9.89805 6.92363 -49.2311 0.850544 5.64769 -1.46326 21.3921 6.29357 30.6235 2.15251 -10.4129 -47.6329 -1.41631 
-0.464766 90.4865 -1.72617 0.647035 -9.18304 -4.26737 -0.481136 3.32155 -1.01352 -28.6868 70.5371 -50.9098 6.56219e-05 5.70138e-06 -18.6659 3.23048 -32.7735 -12.5212 -0.244756 -4.18478 -33.9303 65.302 32.8742 0.272709 9.19547e-05 -2.17544e-06 30.6044 5.83469 -12.5249 -11.7013 -7.0346 -3.55653 -28.1088 -10.3722 32.3439 9.30106 6.92056 -49.3805 0.879412 5.57626 -1.16399 21.0267 5.83421 30.1255 1.85306 -10.114 -47.4313 -1.35181 
-0.637868 90.5374 -1.5234 0.903027 -9.17505 -3.44513 -0.448854 3.27023 -0.887731 -32.2886 70.108 -47.387 6.55356e-05 5.72983e-06 -17.8002 2.04171 -31.8942 -13.1354 -0.0350426 -4.80415 -31.6706 65.4346 33.6247 0.828429 9.19527e-05 -2.17659e-06 30.5529 5.92344 -13.2984 -11.3041 -7.26469 -3.11141 -28.5436 -9.98836 32.1843 8.83004 6.90195 -49.5111 0.900861 5.63494 -0.926673 20.6284 5.30737 29.7529 1.64362 -9.82481 -47.2982 -1.30013 
-0.797293 90.583 -1.31901 1.08199 -9.10347 -2.70511 -0.435015 3.22523 -0.743041 -35.3298 69.6437 -44.3697 6.5451e-05 5.75631e-06 -16.9561 0.912655 -30.9664 -13.5712 0.204793 -5.40613 -29.4462 65.4958 34.3136 1.45353 9.1947e-05 -2.17994e-06 30.4032 6.18724 -13.9323 -10.7781 -7.41641 -2.7357 -28.8283 -9.51716 32.0335 8.2443 6.85982 -49.6235 0.919359 5.76505 -0.780515 20.3868 4.90305 29.4425 1.27111 -9.57309 -47.2029 -1.25502 
-0.953166 90.6271 -1.12122 1.26111 -8.99405 -2.03623 -0.446461 3.18343 -0.58005 -37.9895 69.1403 -41.6854 6.53693e-05 5.78057e-06 -16.1452 -0.0674418 -30.023 -13.8395 0.413785 -5.96059 -27.3204 65.4689 34.9709 2.14336 9.19374e-05 -2.18557e-06 30.15 6.60062 -14.2568 -10.1719 -7.57837 -2.42586 -28.9245 -8.94519 31.9266 7.51232 6.79732 -49.7333 0.937726 5.85264 -0.674273 20.3789 4.68732 29.1014 0.678735 -9.36589 -47.0939 -1.20933 
-1.09977 90.6687 -0.943856 1.47017 -8.8985 -1.49432 -0.477592 3.14024 -0.40552 -40.4552 68.5738 -39.1627 6.52925e-05 5.80225e-06 -15.3853 -0.850202 -29.1687 -13.9687 0.542277 -6.44224 -25.3145 65.3567 35.6548 2.88247 9.19243e-05 -2.1931e-06 29.8083 7.07987 -14.2294 -9.59015 -7.77702 -2.17008 -28.8885 -8.39316 31.8642 6.7962 6.73378 -49.8418 0.955011 5.86665 -0.532081 20.5355 4.55041 28.7138 0.0494315 -9.18416 -46.9586 -1.16272 
-1.22293 90.7044 -0.80256 1.67271 -8.85147 -1.14663 -0.513153 3.09141 -0.230323 -42.8154 67.9193 -36.7406 6.52207e-05 5.82153e-06 -14.6777 -1.45459 -28.519 -14.003 0.57342 -6.8441 -23.4102 65.1764 36.4174 3.65102 9.19092e-05 -2.20167e-06 29.4153 7.52203 -13.9591 -9.1639 -7.96879 -1.9603 -28.8232 -7.99093 31.8175 6.30023 6.67403 -49.9327 0.961867 5.86797 -0.324603 20.7705 4.36142 28.339 -0.43322 -9.00356 -46.8234 -1.11888 
-1.32102 90.7331 -0.696784 1.83246 -8.83276 -0.965894 -0.537502 3.03439 -0.0662347 -45.0159 67.1737 -34.5078 6.51515e-05 5.83923e-06 -13.9972 -1.96465 -28.138 -13.9972 0.527719 -7.18379 -21.5643 64.95 37.2718 4.43467 9.18939e-05 -2.21026e-06 29.0165 7.84475 -13.6361 -8.99589 -8.12098 -1.80306 -28.8356 -7.76309 31.7684 6.09672 6.60879 -50.0007 0.958091 5.90665 -0.101005 21.0362 4.1102 28.0273 -0.763567 -8.82266 -46.71 -1.08045 
-1.40772 90.7585 -0.606054 1.9552 -8.80524 -0.832399 -0.543984 2.96904 0.0772358 -46.9143 66.3678 -32.6412 6.50806e-05 5.85645e-06 -13.3024 -2.49573 -28.0108 -14.0097 0.449296 -7.49745 -19.726 64.6931 38.1798 5.23223 9.18795e-05 -2.21816e-06 28.6451 8.00404 -13.4179 -9.10823 -8.24903 -1.67572 -28.993 -7.62672 31.7041 6.10597 6.52225 -50.0563 0.946422 5.9692 0.0871189 21.2599 3.85489 27.765 -1.01284 -8.6609 -46.6119 -1.04825 
